<?xml version="1.0" encoding="UTF-8"?>
<svg id="Layer_1" xmlns="http://www.w3.org/2000/svg" viewBox="0 0 911 911">
  <defs>
    <style>
      .cls-1 {
        fill: #fff;
      }
    </style>
  </defs>
  <path class="cls-1" d="M455.5,20c58.8,0,115.83,11.51,169.51,34.22,51.86,21.93,98.43,53.34,138.43,93.34,40,40,71.41,86.58,93.34,138.43,22.7,53.68,34.22,110.71,34.22,169.51s-11.51,115.83-34.22,169.51c-21.93,51.86-53.34,98.43-93.34,138.43s-86.58,71.41-138.43,93.34c-53.68,22.7-110.71,34.22-169.51,34.22s-115.83-11.51-169.51-34.22c-51.86-21.93-98.43-53.34-138.43-93.34-40-40-71.41-86.58-93.34-138.43-22.7-53.68-34.22-110.71-34.22-169.51s11.51-115.83,34.22-169.51c21.93-51.86,53.34-98.43,93.34-138.43,40-40,86.58-71.41,138.43-93.34,53.68-22.7,110.71-34.22,169.51-34.22M455.5,0C203.93,0,0,203.93,0,455.5s203.93,455.5,455.5,455.5,455.5-203.93,455.5-455.5S707.07,0,455.5,0h0Z"/>
  <circle class="cls-1" cx="200" cy="286" r="61"/>
  <circle class="cls-1" cx="748" cy="582" r="61"/>
  <circle class="cls-1" cx="211" cy="629" r="61"/>
  <circle class="cls-1" cx="718" cy="237" r="61"/>
  <circle class="cls-1" cx="130" cy="456" r="61"/>
  <circle class="cls-1" cx="614" cy="745" r="61"/>
  <circle class="cls-1" cx="311" cy="747" r="61"/>
  <circle class="cls-1" cx="463" cy="787" r="61"/>
  <circle class="cls-1" cx="504" cy="136" r="61"/>
  <circle class="cls-1" cx="326" cy="163" r="61"/>
  <circle class="cls-1" cx="648" cy="466" r="61"/>
  <circle class="cls-1" cx="798" cy="394" r="61"/>
  <circle class="cls-1" cx="484" cy="444" r="61"/>
  <circle class="cls-1" cx="387" cy="309" r="61"/>
  <circle class="cls-1" cx="581" cy="286" r="61"/>
  <circle class="cls-1" cx="565" cy="604" r="61"/>
  <circle class="cls-1" cx="394" cy="578" r="61"/>
  <circle class="cls-1" cx="284" cy="455" r="61"/>
</svg>